#Comment line ignore any data following # character 
#Hierarchical Translation and Rotation (.htr) file 
[Header]	
#Header keywords are followed by a single value 
FileType HTR		#Single word string
DataType HTRS		#Translation followed by rotation and scale data
FileVersion 1		#integer
NumSegments 64		#integer
NumFrames 3		#integer
DataFrameRate 30		#integer, data frame rate in this file
EulerRotationOrder ZYX
CalibrationUnits mm
RotationUnits Degrees
GlobalAxisofGravity Y
BoneLengthAxis Y
ScaleFactor 1.00
[SegmentNames&Hierarchy]
#CHILD	PARENT
Pinger_Root GLOBAL
Pelvis Pinger_Root
L_Hip Pelvis
R_Hip Pelvis
Rear_Leg01 Pelvis
Spine1 Pelvis
L_Leg01 L_Hip
L_Leg02 L_Leg01
L_Leg03 L_Leg02
L_Foot L_Leg03
L_Toe1_01 L_Foot
L_Toe2_01 L_Foot
L_Toe3_01 L_Foot
planeAlignerLeft L_Foot
L_Toe1_02 L_Toe1_01
L_Toe1_03 L_Toe1_02
L_Toe2_02 L_Toe2_01
L_Toe2_03 L_Toe2_02
L_Toe3_02 L_Toe3_01
L_Toe3_03 L_Toe3_02
planeLockWeightLeft planeAlignerLeft
R_Leg01 R_Hip
R_Leg02 R_Leg01
R_Leg03 R_Leg02
R_Foot R_Leg03
planeAlignerRight R_Foot
R_Toe1_01 R_Foot
R_Toe2_01 R_Foot
R_Toe3_01 R_Foot
planeLockWeightRight planeAlignerRight
R_Toe1_02 R_Toe1_01
R_Toe1_03 R_Toe1_02
R_Toe2_02 R_Toe2_01
R_Toe2_03 R_Toe2_02
R_Toe3_02 R_Toe3_01
R_Toe3_03 R_Toe3_02
Rear_Leg02 Rear_Leg01
Rear_Leg03 Rear_Leg02
Rear_Leg04 Rear_Leg03
Rear_Foot Rear_Leg04
planeAlignerCenter Rear_Foot
Rear_Toe1_01 Rear_Foot
Rear_Toe2_01 Rear_Foot
Rear_Toe3_01 Rear_Foot
planeLockWeightCenter planeAlignerCenter
Rear_Toe1_02 Rear_Toe1_01
Rear_Toe1_03 Rear_Toe1_02
Rear_Toe2_02 Rear_Toe2_01
Rear_Toe2_03 Rear_Toe2_02
Rear_Toe3_02 Rear_Toe3_01
Rear_Toe3_03 Rear_Toe3_02
Back_Bone Spine1
Head Spine1
Motor_Bone Back_Bone
Ping_Mechanism Back_Bone
BN_LookIK Head
bottomMouth Head
L_Mouth01 Head
L_mouthFront Head
mouthGun Head
R_Mouth01 Head
R_mouthFront Head
TopMouth Head
weapon_bone Head
[BasePosition]
#SegmentName Tx, Ty, Tz, Rx, Ry, Rz, BoneLength
Pinger_Root 0.000000 0.000000 0.000000 -90.000000 0.000000 0.000000 10.000000 
Pelvis 0.000000 0.000000 0.000000 0.000000 0.000000 0.000000 10.000000 
L_Hip 0.000000 0.000000 0.000000 0.000000 0.000000 0.000000 10.000000 
R_Hip 0.000000 0.000000 0.000000 0.000000 0.000000 0.000000 10.000000 
Rear_Leg01 0.000000 0.000000 0.000000 0.000000 0.000000 0.000000 10.000000 
Spine1 0.000000 0.000000 0.000000 0.000000 0.000000 0.000000 10.000000 
L_Leg01 0.000000 0.000000 0.000000 0.000000 0.000000 0.000000 10.000000 
L_Leg02 0.000000 0.000000 0.000000 0.000000 0.000000 0.000000 10.000000 
L_Leg03 0.000000 0.000000 0.000000 0.000000 0.000000 0.000000 10.000000 
L_Foot 0.000000 0.000000 0.000000 0.000000 0.000000 0.000000 10.000000 
L_Toe1_01 0.000000 0.000000 0.000000 0.000000 0.000000 0.000000 10.000000 
L_Toe2_01 0.000000 0.000000 0.000000 0.000000 0.000000 0.000000 10.000000 
L_Toe3_01 0.000000 0.000000 0.000000 0.000000 0.000000 0.000000 10.000000 
planeAlignerLeft 0.000000 0.000000 0.000000 0.000000 0.000000 0.000000 10.000000 
L_Toe1_02 0.000000 0.000000 0.000000 0.000000 0.000000 0.000000 10.000000 
L_Toe1_03 0.000000 0.000000 0.000000 0.000000 0.000000 0.000000 10.000000 
L_Toe2_02 0.000000 0.000000 0.000000 0.000000 0.000000 0.000000 10.000000 
L_Toe2_03 0.000000 0.000000 0.000000 0.000000 0.000000 0.000000 10.000000 
L_Toe3_02 0.000000 0.000000 0.000000 0.000000 0.000000 0.000000 10.000000 
L_Toe3_03 0.000000 0.000000 0.000000 0.000000 0.000000 0.000000 10.000000 
planeLockWeightLeft 0.000000 0.000000 0.000000 0.000000 0.000000 0.000000 10.000000 
R_Leg01 0.000000 0.000000 0.000000 0.000000 0.000000 0.000000 10.000000 
R_Leg02 0.000000 0.000000 0.000000 0.000000 0.000000 0.000000 10.000000 
R_Leg03 0.000000 0.000000 0.000000 0.000000 0.000000 0.000000 10.000000 
R_Foot 0.000000 0.000000 0.000000 0.000000 0.000000 0.000000 10.000000 
planeAlignerRight 0.000000 0.000000 0.000000 0.000000 0.000000 0.000000 10.000000 
R_Toe1_01 0.000000 0.000000 0.000000 0.000000 0.000000 0.000000 10.000000 
R_Toe2_01 0.000000 0.000000 0.000000 0.000000 0.000000 0.000000 10.000000 
R_Toe3_01 0.000000 0.000000 0.000000 0.000000 0.000000 0.000000 10.000000 
planeLockWeightRight 0.000000 0.000000 0.000000 0.000000 0.000000 0.000000 10.000000 
R_Toe1_02 0.000000 0.000000 0.000000 0.000000 0.000000 0.000000 10.000000 
R_Toe1_03 0.000000 0.000000 0.000000 0.000000 0.000000 0.000000 10.000000 
R_Toe2_02 0.000000 0.000000 0.000000 0.000000 0.000000 0.000000 10.000000 
R_Toe2_03 0.000000 0.000000 0.000000 0.000000 0.000000 0.000000 10.000000 
R_Toe3_02 0.000000 0.000000 0.000000 0.000000 0.000000 0.000000 10.000000 
R_Toe3_03 0.000000 0.000000 0.000000 0.000000 0.000000 0.000000 10.000000 
Rear_Leg02 0.000000 0.000000 0.000000 0.000000 0.000000 0.000000 10.000000 
Rear_Leg03 0.000000 0.000000 0.000000 0.000000 0.000000 0.000000 10.000000 
Rear_Leg04 0.000000 0.000000 0.000000 0.000000 0.000000 0.000000 10.000000 
Rear_Foot 0.000000 0.000000 0.000000 0.000000 0.000000 0.000000 10.000000 
planeAlignerCenter 0.000000 0.000000 0.000000 0.000000 0.000000 0.000000 10.000000 
Rear_Toe1_01 0.000000 0.000000 0.000000 0.000000 0.000000 0.000000 10.000000 
Rear_Toe2_01 0.000000 0.000000 0.000000 0.000000 0.000000 0.000000 10.000000 
Rear_Toe3_01 0.000000 0.000000 0.000000 0.000000 0.000000 0.000000 10.000000 
planeLockWeightCenter 0.000000 0.000000 0.000000 0.000000 0.000000 0.000000 10.000000 
Rear_Toe1_02 0.000000 0.000000 0.000000 0.000000 0.000000 0.000000 10.000000 
Rear_Toe1_03 0.000000 0.000000 0.000000 0.000000 0.000000 0.000000 10.000000 
Rear_Toe2_02 0.000000 0.000000 0.000000 0.000000 0.000000 0.000000 10.000000 
Rear_Toe2_03 0.000000 0.000000 0.000000 0.000000 0.000000 0.000000 10.000000 
Rear_Toe3_02 0.000000 0.000000 0.000000 0.000000 0.000000 0.000000 10.000000 
Rear_Toe3_03 0.000000 0.000000 0.000000 0.000000 0.000000 0.000000 10.000000 
Back_Bone 0.000000 0.000000 0.000000 0.000000 0.000000 0.000000 10.000000 
Head 0.000000 0.000000 0.000000 0.000000 0.000000 0.000000 10.000000 
Motor_Bone 0.000000 0.000000 0.000000 0.000000 0.000000 0.000000 10.000000 
Ping_Mechanism 0.000000 0.000000 0.000000 0.000000 0.000000 0.000000 10.000000 
BN_LookIK 0.000000 0.000000 0.000000 0.000000 0.000000 0.000000 10.000000 
bottomMouth 0.000000 0.000000 0.000000 0.000000 0.000000 0.000000 10.000000 
L_Mouth01 0.000000 0.000000 0.000000 0.000000 0.000000 0.000000 10.000000 
L_mouthFront 0.000000 0.000000 0.000000 0.000000 0.000000 0.000000 10.000000 
mouthGun 0.000000 0.000000 0.000000 0.000000 0.000000 0.000000 10.000000 
R_Mouth01 0.000000 0.000000 0.000000 0.000000 0.000000 0.000000 10.000000 
R_mouthFront 0.000000 0.000000 0.000000 0.000000 0.000000 0.000000 10.000000 
TopMouth 0.000000 0.000000 0.000000 0.000000 0.000000 0.000000 10.000000 
weapon_bone 0.000000 0.000000 0.000000 0.000000 0.000000 0.000000 10.000000 
#Beginning of Data. Separated by tabs
#Fr	Tx	Ty	Tz	Rx	Ry	Rz	SF
[Pinger_Root]
40 0.000000 0.000000 0.000000 -0.000075 -0.000000 -0.000020 0.000000
41 0.000000 0.000000 0.000000 -0.000075 -0.000000 -0.000020 0.000000
42 0.000000 0.000000 0.000000 -0.000075 -0.000000 -0.000020 0.000000
[Pelvis]
40 793.149170 632.183289 4187.662109 -80.135353 -80.489899 72.768005 4308.741699
41 748.721741 671.073303 4180.583008 -88.602448 -80.808220 81.123093 4299.790527
42 701.511658 708.413086 4175.668945 -94.310623 -81.076439 86.757629 4293.038086
[L_Hip]
40 5.766392 125.831482 872.656799 160.158691 -45.484905 122.312202 881.701050
41 5.766392 125.831482 872.656799 160.158691 -45.484905 122.312202 881.701050
42 5.766392 125.831482 872.656799 160.158691 -45.484905 122.312202 881.701050
[R_Hip]
40 5.765438 125.836372 -872.654907 38.087841 49.812687 125.703735 881.699829
41 5.765438 125.836372 -872.654907 38.087841 49.812687 125.703735 881.699829
42 5.765438 125.836372 -872.654907 38.087841 49.812687 125.703735 881.699829
[Rear_Leg01]
40 -192.298416 -925.602966 -0.001907 168.751572 -6.433286 -165.548615 945.367432
41 -192.298416 -925.602966 -0.001907 168.229446 -7.073153 -164.862732 945.367432
42 -192.298416 -925.602966 -0.001907 167.921295 -7.154668 -164.136749 945.367432
[Spine1]
40 290.604584 5.007505 0.000477 7.130690 19.674070 13.139393 290.647736
41 290.604584 5.007505 0.000477 10.335736 18.863852 15.776352 290.647736
42 290.604584 5.007505 0.000477 11.855386 17.477901 17.426407 290.647736
[L_Leg01]
40 761.932007 -0.002384 -0.069261 22.756653 -12.985961 -4.338155 761.932068
41 761.932007 -0.002384 -0.069261 23.216707 -12.929655 -1.694892 761.932068
42 761.932007 -0.002384 -0.069261 23.548588 -12.988216 -0.103744 761.932068
[L_Leg02]
40 1441.140503 -0.000954 -0.000715 1.263089 -0.136603 -116.122864 1441.140503
41 1441.140503 -0.000954 -0.000715 1.686742 -0.154452 -120.299484 1441.140503
42 1441.140503 -0.000954 -0.000715 2.011645 -0.168528 -123.449356 1441.140503
[L_Leg03]
40 1686.963989 -0.000715 -0.000954 -0.024421 0.008112 116.354393 1686.963989
41 1686.963989 -0.000715 -0.000954 -0.027501 0.010201 117.011330 1686.963989
42 1686.963989 -0.000715 -0.000954 -0.028330 0.011691 117.341064 1686.963989
[L_Foot]
40 3041.570068 -30.715107 11.297464 -7.417340 12.769631 42.922791 3041.746094
41 3041.570068 -30.715107 11.297464 -7.172279 12.738242 44.578205 3041.746094
42 3041.570068 -30.715107 11.297464 -6.744342 12.725363 45.964985 3041.746094
[L_Toe1_01]
40 -188.216690 -224.732346 -21.137953 93.723740 -3.782585 -172.403580 293.899567
41 -188.216690 -224.732346 -21.137953 93.782013 -3.881906 -173.221985 293.899567
42 -188.216690 -224.732346 -21.137953 93.841713 -3.980388 -174.040619 293.899567
[L_Toe2_01]
40 200.746536 -219.926590 148.838394 -91.257774 -22.671917 -52.267448 332.896027
41 200.746536 -219.926590 148.838394 -91.510033 -22.971535 -51.436394 332.896027
42 200.746536 -219.926590 148.838394 -91.767563 -23.267748 -50.602005 332.896027
[L_Toe3_01]
40 188.832520 -219.859131 -191.078659 -101.455856 16.578661 -69.943642 347.140900
41 188.832520 -219.859131 -191.078659 -101.290161 16.761051 -68.997208 347.140900
42 188.832520 -219.859131 -191.078659 -101.121170 16.940792 -68.049309 347.140900
[planeAlignerLeft]
40 0.812531 -811.448792 -0.314951 0.000000 -90.000000 -90.001900 811.449280
41 0.812531 -811.448792 -0.314951 0.000000 -90.000000 -90.001900 811.449280
42 0.812531 -811.448792 -0.314951 0.000000 -90.000000 -90.001900 811.449280
[L_Toe1_02]
40 413.761139 0.000477 0.000000 0.000203 -25.410625 -0.000182 413.761139
41 413.761139 0.000477 0.000000 0.000203 -25.410625 -0.000182 413.761139
42 413.761139 0.000477 0.000000 0.000203 -25.410625 -0.000182 413.761139
[L_Toe1_03]
40 464.317322 0.000358 -0.000089 0.004163 57.250969 0.004163 464.317322
41 464.317322 0.000358 -0.000089 0.004261 58.022915 0.004261 464.317322
42 464.317322 0.000358 -0.000089 0.004363 58.794865 0.004363 464.317322
[L_Toe2_02]
40 342.235809 -0.000477 0.000238 0.001187 -72.991478 0.001187 342.235809
41 342.235809 -0.000477 0.000238 0.001186 -73.316551 0.001186 342.235809
42 342.235809 -0.000477 0.000238 0.001186 -73.641556 0.001186 342.235809
[L_Toe2_03]
40 420.210846 -0.000715 0.000000 -0.023564 86.980469 -0.020066 420.210846
41 420.210846 -0.000715 0.000000 -0.032570 87.863022 -0.029073 420.210846
42 420.210846 -0.000715 0.000000 -0.054243 88.744774 -0.050746 420.210846
[L_Toe3_02]
40 329.270111 0.000954 0.000000 0.001179 -78.614204 0.001179 329.270111
41 329.270111 0.000954 0.000000 0.001179 -79.053246 0.001179 329.270111
42 329.270111 0.000954 0.000000 0.001179 -79.492271 0.001179 329.270111
[L_Toe3_03]
40 439.137451 -0.001907 0.000954 -179.987793 85.281250 -179.984283 439.137451
41 439.137451 -0.001907 0.000954 -179.990997 83.877403 -179.987488 439.137451
42 439.137451 -0.001907 0.000954 -179.993301 82.200493 -179.989807 439.137451
[planeLockWeightLeft]
40 -0.000954 0.000238 -0.000305 -0.011826 -0.004376 0.005620 0.001029
41 -0.000954 0.000238 -0.000305 -0.011826 -0.004376 0.005620 0.001029
42 -0.000954 0.000238 -0.000305 -0.011826 -0.004376 0.005620 0.001029
[R_Leg01]
40 761.455627 -0.001907 -0.000358 127.602646 -28.858007 25.652576 761.455688
41 761.455627 -0.001907 -0.000358 127.300919 -27.932671 27.523514 761.455688
42 761.455627 -0.001907 -0.000358 126.923386 -26.991728 28.764259 761.455688
[R_Leg02]
40 1441.140625 0.000000 -0.000238 -2.319145 -0.743824 -147.136948 1441.140625
41 1441.140625 0.000000 -0.000238 -2.273353 -0.713426 -145.701859 1441.140625
42 1441.140625 0.000000 -0.000238 -2.241614 -0.691141 -144.764557 1441.140625
[R_Leg03]
40 1686.963989 0.000954 0.001431 0.101870 -0.057889 137.793320 1686.963989
41 1686.963989 0.000954 0.001431 0.100453 -0.058273 137.554672 1686.963989
42 1686.963989 0.000954 0.001431 0.099039 -0.058664 137.316010 1686.963989
[R_Foot]
40 3041.560059 -30.531288 -11.204481 -9.681303 -24.067495 63.893799 3041.734131
41 3041.560059 -30.531288 -11.204481 -9.255075 -24.143610 64.001778 3041.734131
42 3041.560059 -30.531288 -11.204481 -8.581994 -24.177420 64.033676 3041.734131
[planeAlignerRight]
40 -0.635147 -812.270569 -0.364304 0.000000 -89.960434 -90.005180 812.270874
41 -0.635147 -812.270569 -0.364304 0.000000 -89.960434 -90.005180 812.270874
42 -0.635147 -812.270569 -0.364304 0.000000 -89.960434 -90.005180 812.270874
[R_Toe1_01]
40 -188.383347 -224.864899 21.052242 76.600761 6.798594 -174.725067 294.101532
41 -188.383347 -224.864899 21.052242 76.518333 6.273128 -175.254959 294.101532
42 -188.383347 -224.864899 21.052242 76.482384 5.731566 -175.430161 294.101532
[R_Toe2_01]
40 200.637817 -220.002121 -148.787384 -94.116737 42.183445 -57.857891 332.857574
41 200.637817 -220.002121 -148.787384 -93.739304 41.566509 -57.556236 332.857574
42 200.637817 -220.002121 -148.787384 -93.506676 40.855980 -57.573845 332.857574
[R_Toe3_01]
40 188.606735 -220.092957 191.126343 -76.004364 -4.335021 -65.743988 347.192566
41 188.606735 -220.092957 191.126343 -75.840942 -4.609680 -66.123238 347.192566
42 188.606735 -220.092957 191.126343 -75.675613 -4.883263 -66.503426 347.192566
[planeLockWeightRight]
40 -0.000477 0.000000 0.000000 -0.011823 -0.004379 -0.000027 0.000477
41 -0.000477 0.000000 0.000000 -0.011823 -0.004379 -0.000027 0.000477
42 -0.000477 0.000000 0.000000 -0.011823 -0.004379 -0.000027 0.000477
[R_Toe1_02]
40 413.762085 0.000477 -0.000119 0.001386 -25.762604 0.001386 413.762085
41 413.762085 0.000477 -0.000119 0.001387 -25.652672 0.001387 413.762085
42 413.762085 0.000477 -0.000119 0.001387 -25.535244 0.001387 413.762085
[R_Toe1_03]
40 464.317810 0.000000 0.001088 0.004357 58.743801 0.004357 464.317810
41 464.317810 0.000000 0.001088 0.004700 61.078495 0.004700 464.317810
42 464.317810 0.000000 0.001088 0.005009 62.901672 0.005009 464.317810
[R_Toe2_02]
40 342.234741 -0.000954 0.000238 0.001194 -68.801346 0.001194 342.234741
41 342.234741 -0.000954 0.000238 0.001194 -68.548454 0.001194 342.234741
42 342.234741 -0.000954 0.000238 0.001195 -68.295570 0.001195 342.234741
[R_Toe2_03]
40 420.210846 0.000715 -0.000268 0.010233 76.828873 0.010233 420.210846
41 420.210846 0.000715 -0.000268 0.009750 76.172386 0.009750 420.210846
42 420.210846 0.000715 -0.000268 0.009467 75.757393 0.009467 420.210846
[R_Toe3_02]
40 329.270355 -0.000477 -0.000954 0.001176 -82.130569 0.001176 329.270355
41 329.270355 -0.000477 -0.000954 0.001177 -81.796349 0.001177 329.270355
42 329.270355 -0.000477 -0.000954 0.001177 -81.462181 0.001177 329.270355
[R_Toe3_03]
40 439.137939 0.000238 0.001431 -179.998306 70.895508 -179.994766 439.137939
41 439.137939 0.000238 0.001431 -179.997986 72.516487 -179.994446 439.137939
42 439.137939 0.000238 0.001431 -179.997528 74.394791 -179.994003 439.137939
[Rear_Leg02]
40 1162.777710 -0.029802 0.005960 1.267610 -2.694636 -137.059113 1162.777710
41 1162.777710 -0.029802 0.005960 1.243725 -2.705922 -136.536377 1162.777710
42 1162.777710 -0.029802 0.005960 1.219735 -2.716990 -136.013580 1162.777710
[Rear_Leg03]
40 607.192505 -0.013351 -0.073195 0.010456 -0.005180 69.059685 607.192505
41 607.192505 -0.013351 -0.073195 0.010464 -0.005164 68.886116 607.192505
42 607.192505 -0.013351 -0.073195 0.010472 -0.005148 68.712563 607.192505
[Rear_Leg04]
40 995.874512 -0.020504 -0.011921 -0.040367 -0.018433 68.276299 995.874573
41 995.874512 -0.020504 -0.011921 -0.040307 -0.018567 67.897293 995.874573
42 995.874512 -0.020504 -0.011921 -0.040246 -0.018700 67.518280 995.874573
[Rear_Foot]
40 3096.176270 -0.067472 -0.041425 -169.340134 76.032730 19.794113 3096.176270
41 3096.176270 -0.067472 -0.041425 -168.971252 76.583977 20.744226 3096.176270
42 3096.176270 -0.067472 -0.041425 -168.545898 77.133667 21.750130 3096.176270
[planeAlignerCenter]
40 0.350077 0.966311 -838.790894 0.000009 0.000003 -179.999985 838.791565
41 0.350077 0.966311 -838.790894 0.000009 0.000003 -179.999985 838.791565
42 0.350077 0.966311 -838.790894 0.000009 0.000003 -179.999985 838.791565
[Rear_Toe1_01]
40 0.653352 83.966492 -371.173737 0.288091 41.914127 90.413170 380.553192
41 0.653352 83.966492 -371.173737 0.288091 41.914127 90.413170 380.553192
42 0.653352 83.966492 -371.173737 0.288091 41.914127 90.413170 380.553192
[Rear_Toe2_01]
40 178.200760 -294.826019 -362.060547 -7.196267 34.406261 -66.271294 499.765686
41 178.200760 -294.826019 -362.060547 -7.196267 34.406261 -66.271294 499.765686
42 178.200760 -294.826019 -362.060547 -7.196267 34.406261 -66.271294 499.765686
[Rear_Toe3_01]
40 -153.359680 -308.780914 -362.060852 3.289418 33.518005 -112.540970 499.952881
41 -153.359680 -308.780914 -362.060852 3.289418 33.518005 -112.540970 499.952881
42 -153.359680 -308.780914 -362.060852 3.289418 33.518005 -112.540970 499.952881
[planeLockWeightCenter]
40 -0.000062 0.000238 0.000000 -0.011814 -0.004373 -0.000015 0.000246
41 -0.000062 0.000238 0.000000 -0.011814 -0.004373 -0.000015 0.000246
42 -0.000062 0.000238 0.000000 -0.011814 -0.004373 -0.000015 0.000246
[Rear_Toe1_02]
40 379.707825 0.194073 0.000477 -0.000242 -31.676744 0.006934 379.707855
41 379.707825 0.194073 0.000477 -0.000242 -31.676744 0.006934 379.707855
42 379.707825 0.194073 0.000477 -0.000242 -31.676744 0.006934 379.707855
[Rear_Toe1_03]
40 500.129700 0.165701 0.000119 -0.000103 51.902466 0.007295 500.129761
41 500.129700 0.165701 0.000119 -0.000103 51.902485 0.007295 500.129761
42 500.129700 0.165701 0.000119 -0.000103 51.902481 0.007295 500.129761
[Rear_Toe2_02]
40 340.494507 0.000238 -0.000954 0.001192 -69.854523 0.001192 340.494507
41 340.494507 0.000238 -0.000954 0.001192 -69.854523 0.001192 340.494507
42 340.494507 0.000238 -0.000954 0.001192 -69.854523 0.001192 340.494507
[Rear_Toe2_03]
40 433.103577 0.000000 0.000238 0.006696 69.810326 0.006696 433.103546
41 433.103577 0.000000 0.000238 0.006696 69.810326 0.006696 433.103546
42 433.103577 0.000000 0.000238 0.006696 69.810326 0.006696 433.103546
[Rear_Toe3_02]
40 340.494141 -0.000358 -0.000477 0.008288 -67.274704 -0.009460 340.494171
41 340.494141 -0.000358 -0.000477 0.008288 -67.274704 -0.009460 340.494171
42 340.494141 -0.000358 -0.000477 0.008288 -67.274704 -0.009460 340.494171
[Rear_Toe3_03]
40 433.103577 0.001431 -0.000238 -0.000972 65.958984 -0.004547 433.103546
41 433.103577 0.001431 -0.000238 -0.000972 65.958984 -0.004547 433.103546
42 433.103577 0.001431 -0.000238 -0.000972 65.958984 -0.004547 433.103546
[Back_Bone]
40 1312.175781 -701.934692 0.000954 0.000023 -0.000007 -85.606667 1488.125488
41 1312.175781 -701.934692 0.000954 0.000023 -0.000007 -85.606667 1488.125488
42 1312.175781 -701.934692 0.000954 0.000023 -0.000007 -85.606667 1488.125488
[Head]
40 1406.159424 809.709290 0.001431 -0.269931 -2.022094 8.070882 1622.625488
41 1406.159424 809.709290 0.001431 -0.232668 -1.946129 8.028195 1622.625488
42 1406.159424 809.709290 0.001431 -0.195464 -1.870136 7.985559 1622.625488
[Motor_Bone]
40 1158.364380 -417.834747 0.000477 -0.000105 0.000046 -105.985291 1231.419434
41 1158.364380 -417.834747 0.000477 -0.000105 0.000046 -105.985291 1231.419434
42 1158.364380 -417.834747 0.000477 -0.000105 0.000046 -105.985291 1231.419434
[Ping_Mechanism]
40 1215.237793 -433.297150 0.000954 0.000103 -0.000053 82.120995 1290.174072
41 1215.237793 -433.297150 0.000954 0.000103 -0.000053 82.120995 1290.174072
42 1215.237793 -433.297150 0.000954 0.000103 -0.000053 82.120995 1290.174072
[BN_LookIK]
40 193.241119 1380.371704 -0.002861 0.000000 89.965736 -31.038179 1393.832153
41 193.241119 1380.371704 -0.002861 0.000000 89.965736 -31.038179 1393.832153
42 193.241119 1380.371704 -0.002861 0.000000 89.965736 -31.038179 1393.832153
[bottomMouth]
40 -435.092926 615.759399 -0.000954 -0.000022 0.000016 73.527184 753.966492
41 -435.092926 615.759399 -0.000954 -0.000022 0.000016 73.527184 753.966492
42 -435.092926 615.759399 -0.000954 -0.000022 0.000016 73.527184 753.966492
[L_Mouth01]
40 554.440979 7.658243 838.222046 150.204178 23.759130 109.605339 1005.027161
41 554.440979 7.658243 838.222046 150.204178 23.759130 109.605339 1005.027161
42 554.440979 7.658243 838.222046 150.204178 23.759130 109.605339 1005.027161
[L_mouthFront]
40 551.629089 934.514771 339.150421 0.000081 2.804060 79.119301 1136.941284
41 551.629089 934.514771 339.150421 0.000081 2.804060 79.119301 1136.941284
42 551.629089 934.514771 339.150421 0.000081 2.804060 79.119301 1136.941284
[mouthGun]
40 55.332661 1627.420898 0.000000 0.000023 0.000009 -11.038128 1628.361328
41 55.332661 1627.420898 0.000000 0.000023 0.000009 -11.038128 1628.361328
42 55.332661 1627.420898 0.000000 0.000023 0.000009 -11.038128 1628.361328
[R_Mouth01]
40 554.442383 7.659197 -838.223938 29.795891 -23.759109 109.605331 1005.029541
41 554.442383 7.659197 -838.223938 29.795891 -23.759109 109.605331 1005.029541
42 554.442383 7.659197 -838.223938 29.795891 -23.759109 109.605331 1005.029541
[R_mouthFront]
40 551.629089 934.514282 -339.151367 0.000029 -2.803930 79.119133 1136.941162
41 551.629089 934.514282 -339.151367 0.000029 -2.803930 79.119133 1136.941162
42 551.629089 934.514282 -339.151367 0.000029 -2.803930 79.119133 1136.941162
[TopMouth]
40 461.269867 -56.106091 -0.008583 -0.000059 -0.000268 92.025169 464.669525
41 461.269867 -56.106091 -0.008583 -0.000059 -0.000268 92.025169 464.669525
42 461.269867 -56.106091 -0.008583 -0.000059 -0.000268 92.025169 464.669525
[weapon_bone]
40 -987.239868 1448.372803 0.001431 0.000000 89.965736 -31.038221 1752.833740
41 -987.239868 1448.372803 0.001431 0.000000 89.965736 -31.038221 1752.833740
42 -987.239868 1448.372803 0.001431 0.000000 89.965736 -31.038221 1752.833740
